<?xml version="1.0" standalone="no"?>
<!DOCTYPE svg PUBLIC "-//W3C//DTD SVG 20010904//EN"
 "http://www.w3.org/TR/2001/REC-SVG-20010904/DTD/svg10.dtd">
<svg version="1.0" xmlns="http://www.w3.org/2000/svg"
 width="260.000000pt" height="260.000000pt" viewBox="0 0 260.000000 260.000000"
 preserveAspectRatio="xMidYMid meet">
<metadata>
Created by potrace 1.11, written by Peter Selinger 2001-2013
</metadata>
<g transform="translate(0.000000,260.000000) scale(0.100000,-0.100000)"
fill="#000000" stroke="none">
<path d="M1170 2326 c-3 -2 -36 -7 -73 -10 -369 -33 -709 -223 -888 -496 -228
-347 -228 -771 1 -1117 183 -277 476 -442 875 -492 70 -9 398 -7 445 3 14 3
54 10 89 16 93 17 263 74 355 121 300 152 507 409 572 713 78 359 -8 695 -235
924 -173 173 -403 278 -726 328 -41 6 -410 16 -415 10z m204 -151 c174 -29
323 -100 449 -215 152 -140 253 -343 286 -580 12 -84 6 -349 -9 -420 -6 -30
-13 -65 -16 -78 -15 -73 -80 -215 -127 -277 -139 -182 -330 -264 -586 -252
-64 3 -129 8 -146 11 -448 92 -731 471 -733 979 -1 420 157 695 458 797 121
42 295 56 424 35z"/>
<path d="M1195 1934 c-141 -30 -245 -80 -327 -157 -183 -172 -254 -456 -181
-717 65 -232 242 -400 467 -445 363 -73 686 130 775 485 25 101 26 304 1 394
-60 214 -185 348 -384 412 -66 22 -103 27 -206 29 -69 2 -134 1 -145 -1z m215
-112 c133 -52 230 -175 281 -357 31 -106 33 -351 5 -460 -50 -194 -163 -303
-323 -310 -122 -5 -212 32 -303 123 -75 75 -125 168 -156 287 -25 97 -25 343
-1 435 44 164 122 255 252 296 59 18 180 11 245 -14z"/>
</g>
</svg>
